<svg id="SvgjsSvg1006" width="671.0124816894531" height="162" xmlns="http://www.w3.org/2000/svg" version="1.1" xmlns:xlink="http://www.w3.org/1999/xlink" xmlns:svgjs="http://svgjs.com/svgjs"><defs id="SvgjsDefs1007"></defs><rect id="SvgjsRect1008" width="671.0124816894531" height="162" fill="#ffffff"></rect><g id="SvgjsG1009" transform="translate(56.012481689453125,33)"><path id="SvgjsPath1010" d="M 0 0L 46 0L 46 32L 0 32Z" stroke="none" fill="none"></path><g id="SvgjsG1011"><text id="SvgjsText1012" font-family="微软雅黑" text-anchor="middle" font-size="40px" width="26" fill="#323232" font-weight="400" align="middle" anchor="middle" family="微软雅黑" size="40px" weight="400" font-style="" y="-15" transform="rotate(0)"><tspan id="SvgjsTspan1013" dy="50" x="23"><tspan id="SvgjsTspan1014" style="text-decoration:;">R</tspan></tspan></text></g></g><g id="SvgjsG1015" transform="translate(98.01248168945312,29)"><path id="SvgjsPath1016" d="M 0 0L 160 0L 160 40L 0 40Z" stroke="none" fill="none"></path><g id="SvgjsG1017"><text id="SvgjsText1018" font-family="微软雅黑" text-anchor="middle" font-size="40px" width="22" fill="#323232" font-weight="400" align="middle" anchor="middle" family="微软雅黑" size="40px" weight="400" font-style="" y="-11" transform="rotate(0)"><tspan id="SvgjsTspan1019" dy="50" x="80"><tspan id="SvgjsTspan1020" style="text-decoration:;">e</tspan></tspan></text></g></g><g id="SvgjsG1021" transform="translate(202.01248168945312,25)"><path id="SvgjsPath1022" d="M 0 0L 160 0L 160 40L 0 40Z" stroke="none" fill="none"></path><g id="SvgjsG1023"><text id="SvgjsText1024" font-family="微软雅黑" text-anchor="middle" font-size="40px" width="26" fill="#323232" font-weight="400" align="middle" anchor="middle" family="微软雅黑" size="40px" weight="400" font-style="" y="-11" transform="rotate(0)"><tspan id="SvgjsTspan1025" dy="50" x="80"><tspan id="SvgjsTspan1026" style="text-decoration:;">g</tspan></tspan></text></g></g><g id="SvgjsG1027" transform="translate(310.0124816894531,33)"><path id="SvgjsPath1028" d="M 0 0L 160 0L 160 40L 0 40Z" stroke="none" fill="none"></path><g id="SvgjsG1029"><text id="SvgjsText1030" font-family="微软雅黑" text-anchor="middle" font-size="40px" width="22" fill="#323232" font-weight="400" align="middle" anchor="middle" family="微软雅黑" size="40px" weight="400" font-style="" y="-11" transform="rotate(0)"><tspan id="SvgjsTspan1031" dy="50" x="80"><tspan id="SvgjsTspan1032" style="text-decoration:;">E</tspan></tspan></text></g></g><g id="SvgjsG1033" transform="translate(400.0124816894531,29)"><path id="SvgjsPath1034" d="M 0 0L 160 0L 160 40L 0 40Z" stroke="none" fill="none"></path><g id="SvgjsG1035"><text id="SvgjsText1036" font-family="微软雅黑" text-anchor="middle" font-size="40px" width="20" fill="#323232" font-weight="400" align="middle" anchor="middle" family="微软雅黑" size="40px" weight="400" font-style="" y="-11" transform="rotate(0)"><tspan id="SvgjsTspan1037" dy="50" x="80"><tspan id="SvgjsTspan1038" style="text-decoration:;">x</tspan></tspan></text></g></g><g id="SvgjsG1039" transform="translate(486.0124816894531,29)"><path id="SvgjsPath1040" d="M 0 0L 160 0L 160 40L 0 40Z" stroke="none" fill="none"></path><g id="SvgjsG1041"><text id="SvgjsText1042" font-family="微软雅黑" text-anchor="middle" font-size="40px" width="26" fill="#323232" font-weight="400" align="middle" anchor="middle" family="微软雅黑" size="40px" weight="400" font-style="" y="-11" transform="rotate(0)"><tspan id="SvgjsTspan1043" dy="50" x="80"><tspan id="SvgjsTspan1044" style="text-decoration:;">p</tspan></tspan></text></g></g><g id="SvgjsG1045" transform="translate(25.012481689453125,69)"><path id="SvgjsPath1046" d="M 15.5 0L 31 15.5L 20.77 15.5L 20.77 68L 10.23 68L 10.23 15.5L 0 15.5L 15.5 0Z" stroke="#323232" stroke-width="2" fill-opacity="1" fill="#ffffff"></path><g id="SvgjsG1047"><text id="SvgjsText1048" font-family="微软雅黑" text-anchor="middle" font-size="13px" width="0" fill="#323232" font-weight="400" align="middle" anchor="middle" family="微软雅黑" size="13px" weight="400" font-style="" y="27.45" transform="rotate(0)"></text></g></g><g id="SvgjsG1049" transform="translate(215.01248168945312,69)"><path id="SvgjsPath1050" d="M 15.5 0L 31 15.5L 20.77 15.5L 20.77 68L 10.23 68L 10.23 15.5L 0 15.5L 15.5 0Z" stroke="#323232" stroke-width="2" fill-opacity="1" fill="#ffffff"></path><g id="SvgjsG1051"><text id="SvgjsText1052" font-family="微软雅黑" text-anchor="middle" font-size="13px" width="0" fill="#323232" font-weight="400" align="middle" anchor="middle" family="微软雅黑" size="13px" weight="400" font-style="" y="27.45" transform="rotate(0)"></text></g></g><g id="SvgjsG1053" transform="translate(317.0124816894531,69)"><path id="SvgjsPath1054" d="M 15.5 0L 31 15.5L 20.77 15.5L 20.77 68L 10.23 68L 10.23 15.5L 0 15.5L 15.5 0Z" stroke="#323232" stroke-width="2" fill-opacity="1" fill="#ffffff"></path><g id="SvgjsG1055"><text id="SvgjsText1056" font-family="微软雅黑" text-anchor="middle" font-size="13px" width="0" fill="#323232" font-weight="400" align="middle" anchor="middle" family="微软雅黑" size="13px" weight="400" font-style="" y="27.45" transform="rotate(0)"></text></g></g><g id="SvgjsG1057" transform="translate(422.0124816894531,69)"><path id="SvgjsPath1058" d="M 15.5 0L 31 15.5L 20.77 15.5L 20.77 68L 10.23 68L 10.23 15.5L 0 15.5L 15.5 0Z" stroke="#323232" stroke-width="2" fill-opacity="1" fill="#ffffff"></path><g id="SvgjsG1059"><text id="SvgjsText1060" font-family="微软雅黑" text-anchor="middle" font-size="13px" width="0" fill="#323232" font-weight="400" align="middle" anchor="middle" family="微软雅黑" size="13px" weight="400" font-style="" y="27.45" transform="rotate(0)"></text></g></g><g id="SvgjsG1061" transform="translate(507.0124816894531,69)"><path id="SvgjsPath1062" d="M 15.5 0L 31 15.5L 20.77 15.5L 20.77 68L 10.23 68L 10.23 15.5L 0 15.5L 15.5 0Z" stroke="#323232" stroke-width="2" fill-opacity="1" fill="#ffffff"></path><g id="SvgjsG1063"><text id="SvgjsText1064" font-family="微软雅黑" text-anchor="middle" font-size="13px" width="0" fill="#323232" font-weight="400" align="middle" anchor="middle" family="微软雅黑" size="13px" weight="400" font-style="" y="27.45" transform="rotate(0)"></text></g></g><g id="SvgjsG1065" transform="translate(598.0124816894531,69)"><path id="SvgjsPath1066" d="M 15.5 0L 31 15.5L 20.77 15.5L 20.77 68L 10.23 68L 10.23 15.5L 0 15.5L 15.5 0Z" stroke="#323232" stroke-width="2" fill-opacity="1" fill="#ffffff"></path><g id="SvgjsG1067"><text id="SvgjsText1068" font-family="微软雅黑" text-anchor="middle" font-size="13px" width="0" fill="#323232" font-weight="400" align="middle" anchor="middle" family="微软雅黑" size="13px" weight="400" font-style="" y="27.45" transform="rotate(0)"></text></g></g><g id="SvgjsG1069" transform="translate(116.01248168945312,69)"><path id="SvgjsPath1070" d="M 15.5 0L 31 15.5L 20.77 15.5L 20.77 68L 10.23 68L 10.23 15.5L 0 15.5L 15.5 0Z" stroke="#323232" stroke-width="2" fill-opacity="1" fill="#ffffff"></path><g id="SvgjsG1071"><text id="SvgjsText1072" font-family="微软雅黑" text-anchor="middle" font-size="13px" width="0" fill="#323232" font-weight="400" align="middle" anchor="middle" family="微软雅黑" size="13px" weight="400" font-style="" y="27.45" transform="rotate(0)"></text></g></g></svg>